<svg version="1.1" viewBox="0 0 130 48" xmlns="http://www.w3.org/2000/svg">
  <g transform="translate(-131.648 -25.9998)">
    <g aria-label="kj.dev">
      <path d="m132.648 61.1117v-31.9798h7.41562v31.9798zm6.48866-15.2715 7.8791-7.55466h9.89521l-17.7743 15.1093zm9.38539 15.2715-9.57078-14.669 6.78993-1.87708 11.7723 16.5461z"/>
      <path d="m164.694 35.3424q-2.03929 0-3.24433-1.066-1.20504-1.08917-1.20504-3.05894 0-1.92343 1.20504-3.05894 1.20504-1.15869 3.24433-1.15869 2.0393 0 3.22116 1.15869 1.18186 1.13552 1.18186 3.05894 0 1.96977-1.18186 3.05894-1.18186 1.066-3.22116 1.066zm-4.42619 37.6574q-2.0393 0-3.61512-0.370781-1.57582-0.347607-3.17481-0.787909v-6.3728q0.99648 0.393955 2.29421 0.718388t2.41007 0.324433q1.43678 0 2.13199-0.67204 0.71839-0.67204 0.71839-2.66499v-24.9814h7.46196v25.1204q0 5.26045-2.08564 7.46196-2.08564 2.22468-6.14105 2.22468z"/>
      <path d="m172.394 56.8014q0-2.06247 1.36726-3.42972 1.39043-1.36725 3.59194-1.36725t3.63828 1.36725q1.43678 1.36725 1.43678 3.42972t-1.43678 3.40655q-1.43677 1.32091-3.63828 1.32091t-3.59194-1.34408q-1.36726-1.34408-1.36726-3.38338z"/>
      <g fill="#8563d0">
        <path d="m195.839 61.8532q-2.96624 0-5.39949-1.52947-2.41008-1.55264-3.82368-4.31033-1.4136-2.78086-1.4136-6.44232 0-3.61511 1.34408-6.30327 1.34408-2.71133 3.63829-4.21763 2.2942-1.5063 5.14458-1.5063 2.57229 0 4.37985 1.22821 1.80756 1.20504 2.73451 3.66146 0.95012 2.43325 0.95012 6.11788h-2.06246q0-1.29773-0.57935-2.24786-0.55617-0.9733-1.48312-1.5063t-2.06247-0.532997q-1.45995 0-2.50277 0.695214-1.01965 0.695214-1.55265 1.90025-0.53299 1.20504-0.53299 2.71134 0 1.57582 0.53299 2.8272 0.55618 1.25138 1.57582 1.96977 1.01965 0.718388 2.3869 0.718388 1.08917 0 2.0393-0.602519 0.9733-0.625692 1.57582-1.64534 0.60252-1.01965 0.60252-2.22468h2.06246q0 3.87002-1.06599 6.3728-1.04282 2.4796-2.78086 3.68463-1.71486 1.18186-3.70781 1.18186zm6.95214-0.741561-1.45994-5.95567v-26.0242h7.50831v31.9798z"/>
        <path d="m223.779 61.8532q-2.87355 0-5.3995-1.48312-2.52594-1.48312-4.10176-4.2408-1.55264-2.75768-1.55264-6.53501 0-3.77733 1.55264-6.46549 1.55265-2.71133 4.07859-4.14811 2.52594-1.43678 5.42267-1.43678 2.87355 0 5.00554 1.15869 2.13199 1.13552 3.42972 3.08212 1.32091 1.9466 1.71486 4.40302 0.41713 2.43325-0.16221 5.02871h-15.1788v-3.75416h9.75617l-1.066 0.695214q0.0695-0.811083-0.0695-1.64534-0.11587-0.834257-0.48665-1.52947-0.37078-0.718387-1.06599-1.13552-0.67204-0.440302-1.73804-0.440302-1.18186 0-2.06247 0.579345-0.85743 0.556171-1.34408 1.64534-0.46347 1.066-0.46347 2.61864v2.9199q0 1.45995 0.41712 2.52594 0.41713 1.066 1.22822 1.66851 0.83425 0.579345 2.08564 0.579345 1.01965 0 1.78438-0.417129 0.76474-0.417128 1.066-1.32091h7.36926q-0.3476 2.13199-1.71486 3.87002-1.34408 1.73804-3.52241 2.75768-2.15517 1.01965-4.98237 1.01965z"/>
        <path d="m235.363 38.2855h8.59748l3.73098 16.4997h-0.32444l3.73099-16.4997h8.5743l-7.90226 22.8262h-8.50479z"/>
      </g>
    </g>
  </g>
</svg>
